<?xml version="1.0" encoding="UTF-8" standalone="no"?>
<!-- Created with Inkscape (http://www.inkscape.org/) -->

<svg
   width="323.96332mm"
   height="64.985977mm"
   viewBox="0 0 323.96332 64.985977"
   version="1.1"
   id="svg1"
   inkscape:version="1.4.3 (0d15f75, 2025-12-25)"
   sodipodi:docname="logo.svg"
   xmlns:inkscape="http://www.inkscape.org/namespaces/inkscape"
   xmlns:sodipodi="http://sodipodi.sourceforge.net/DTD/sodipodi-0.dtd"
   xmlns="http://www.w3.org/2000/svg"
   xmlns:svg="http://www.w3.org/2000/svg">
  <sodipodi:namedview
     id="namedview1"
     pagecolor="#ffffff"
     bordercolor="#000000"
     borderopacity="0.25"
     inkscape:showpageshadow="2"
     inkscape:pageopacity="0.0"
     inkscape:pagecheckerboard="0"
     inkscape:deskcolor="#d1d1d1"
     inkscape:document-units="mm"
     inkscape:zoom="1.3763678"
     inkscape:cx="559.44347"
     inkscape:cy="131.86882"
     inkscape:window-width="3130"
     inkscape:window-height="1826"
     inkscape:window-x="-11"
     inkscape:window-y="-11"
     inkscape:window-maximized="1"
     inkscape:current-layer="layer1" />
  <defs
     id="defs1" />
  <g
     inkscape:label="Layer 1"
     inkscape:groupmode="layer"
     id="layer1"
     transform="translate(42.896585,-113.53777)">
    <g
       id="g1"
       transform="translate(58.438835,-31.718447)">
      <path
         id="path1"
         d="m -24.933957,165.76286 h 4.691899 l 10.8358778,14.23981 v -14.23981 h 5.0217678 v 23.12549 H -8.7124665 L -19.912189,174.18607 v 14.70228 h -5.021768 z"
         style="fill:#231f20;fill-opacity:1;fill-rule:nonzero;stroke:none;stroke-width:0.82881" />
      <path
         id="path2"
         d="m 19.09589,184.59237 c 1.012804,0 1.948537,-0.18565 2.808009,-0.56027 0.858653,-0.37545 1.59049,-0.89263 2.196354,-1.5532 0.605856,-0.66056 1.078278,-1.42555 1.42058,-2.2958 0.341468,-0.86942 0.511379,-1.80018 0.511379,-2.79144 v -0.0663 c 0,-0.99292 -0.169911,-1.92864 -0.511379,-2.80884 -0.342302,-0.88186 -0.825495,-1.65017 -1.453737,-2.31322 -0.628235,-0.66056 -1.370852,-1.18271 -2.229496,-1.5681 -0.85948,-0.38706 -1.795206,-0.57851 -2.808843,-0.57851 -1.035185,0 -1.976715,0.1873 -2.824588,0.56276 -0.847874,0.37296 -1.57474,0.89014 -2.179775,1.55319 -0.607518,0.66056 -1.07994,1.4239 -1.421408,2.29332 -0.340641,0.87191 -0.512205,1.80266 -0.512205,2.79309 v 0.0663 c 0,0.99043 0.171564,1.92615 0.512205,2.80718 0.341468,0.88186 0.826323,1.65265 1.454562,2.31322 0.626581,0.65973 1.364221,1.18519 2.212928,1.56976 0.847873,0.3854 1.789398,0.57685 2.825414,0.57685 m -0.06713,4.69273 c -1.782773,0 -3.424645,-0.31329 -4.923139,-0.94318 -1.496833,-0.62576 -2.791436,-1.47446 -3.881321,-2.5428 -1.0907184,-1.06917 -1.9377581,-2.32315 -2.5427967,-3.76695 -0.6075151,-1.44129 -0.9083728,-2.98951 -0.9083728,-4.64051 v -0.0663 c 0,-1.65265 0.3066574,-3.19839 0.9241261,-4.64217 0.6166353,-1.4413 1.4703081,-2.71022 2.5601934,-3.8001 1.08989,-1.09072 2.389462,-1.9477 3.898728,-2.57595 1.507611,-0.6274 3.155283,-0.94069 4.939715,-0.94069 1.782773,0 3.424645,0.31329 4.921477,0.94069 1.496833,0.62825 2.792262,1.47694 3.881313,2.5428 1.091539,1.06833 1.938602,2.32564 2.544472,3.76694 0.605843,1.44296 0.909187,2.98952 0.909187,4.64217 v 0.0663 c 0,1.65099 -0.309139,3.19921 -0.924956,4.64051 -0.617459,1.44379 -1.471137,2.71021 -2.560188,3.8001 -1.090718,1.08906 -2.390291,1.95019 -3.898723,2.57595 -1.508437,0.62989 -3.156116,0.94318 -4.939715,0.94318"
         style="fill:#231f20;fill-opacity:1;fill-rule:nonzero;stroke:none;stroke-width:0.82881" />
      <path
         id="path3"
         d="m 52.6967,176.99549 c 1.25648,0 2.219563,-0.2992 2.891737,-0.89263 0.670507,-0.59425 1.007004,-1.38743 1.007004,-2.37951 v -0.0638 c 0,-1.10232 -0.353086,-1.92948 -1.056746,-2.48063 -0.705299,-0.55034 -1.684972,-0.82633 -2.939785,-0.82633 h -5.055738 v 6.64292 z M 42.455923,165.76261 h 10.5723 c 2.928197,0 5.175118,0.78158 6.738249,2.34388 1.321938,1.32279 1.983344,3.08484 1.983344,5.28616 v 0.0663 c 0,1.87145 -0.457518,3.39895 -1.37086,4.57669 -0.915008,1.17774 -2.109311,2.04219 -3.585421,2.59335 l 5.649992,8.25993 h -5.946722 l -4.957101,-7.40045 h -0.06466 -3.931867 v 7.40045 h -5.087249 z"
         style="fill:#231f20;fill-opacity:1;fill-rule:nonzero;stroke:none;stroke-width:0.82881" />
      <path
         id="path4"
         d="m 83.786009,189.28519 c -1.80766,0 -3.45366,-0.2992 -4.939718,-0.89263 -1.486906,-0.59426 -2.764923,-1.42058 -3.833257,-2.47649 -1.067514,-1.05756 -1.898809,-2.31321 -2.493883,-3.76695 -0.595101,-1.45373 -0.890985,-3.04008 -0.890985,-4.75737 v -0.0663 c 0,-1.65265 0.300858,-3.19838 0.908368,-4.64217 0.605049,-1.44213 1.447112,-2.71021 2.527062,-3.80009 1.078283,-1.09072 2.3563,-1.94772 3.83241,-2.57678 1.47447,-0.62658 3.094778,-0.93987 4.85685,-0.93987 1.033516,0 1.975882,0.0713 2.824586,0.213 0.847037,0.14504 1.635231,0.34644 2.362094,0.61332 0.726864,0.26273 1.408986,0.59343 2.047161,0.98961 0.639842,0.39699 1.255659,0.84787 1.850734,1.35427 l -3.205004,3.86557 c -0.440928,-0.37462 -0.881036,-0.70531 -1.321117,-0.9896 -0.440929,-0.2876 -0.897599,-0.52961 -1.370039,-0.72935 -0.474901,-0.19726 -0.987108,-0.35142 -1.537441,-0.46082 -0.550334,-0.11189 -1.156176,-0.16576 -1.815915,-0.16576 -0.924957,0 -1.79107,0.19394 -2.595007,0.57851 -0.803963,0.38788 -1.507622,0.90506 -2.113465,1.55816 -0.60669,0.65062 -1.07995,1.41313 -1.421421,2.28504 -0.340651,0.87191 -0.512207,1.80432 -0.512207,2.79723 v 0.0663 c 0,1.05922 0.171556,2.03556 0.512207,2.93067 0.341471,0.89263 0.82632,1.67254 1.454573,2.33394 0.627407,0.66056 1.365039,1.17608 2.212922,1.53993 0.847858,0.36301 1.789404,0.54536 2.825406,0.54536 1.893835,0 3.489299,-0.4658 4.790546,-1.39655 v -3.32602 H 83.6194 v -4.39684 h 10.044377 v 10.04601 c -1.190175,1.01198 -2.605801,1.87643 -4.246006,2.59336 -1.641872,0.71443 -3.518297,1.07331 -5.631762,1.07331"
         style="fill:#231f20;fill-opacity:1;fill-rule:nonzero;stroke:none;stroke-width:0.82881" />
      <path
         id="path5"
         d="m 117.9761,179.20917 -3.07242,-7.49992 -3.07237,7.49992 z m -5.35162,-13.61323 h 4.69191 l 9.91005,23.29291 h -5.31847 l -2.11508,-5.1867 h -9.77755 l -2.11507,5.1867 h -5.18671 z"
         style="fill:#231f20;fill-opacity:1;fill-rule:nonzero;stroke:none;stroke-width:0.82881" />
      <path
         id="path6"
         d="m 151.4847,179.20917 -3.07241,-7.49992 -3.07242,7.49992 z m -5.35167,-13.61323 h 4.6919 l 9.91011,23.29291 h -5.31847 l -2.11516,-5.1867 h -9.77746 l -2.11513,5.1867 h -5.18671 z"
         style="fill:#231f20;fill-opacity:1;fill-rule:nonzero;stroke:none;stroke-width:0.82881" />
      <path
         id="path7"
         d="m 180.93737,176.99549 c 1.25651,0 2.21957,-0.2992 2.89172,-0.89263 0.67053,-0.59425 1.007,-1.38743 1.007,-2.37951 v -0.0638 c 0,-1.10232 -0.35306,-1.92948 -1.05672,-2.48063 -0.70527,-0.55034 -1.68495,-0.82633 -2.93979,-0.82633 h -5.05571 v 6.64292 z m -10.24075,-11.23288 h 10.57233 c 2.92814,0 5.17507,0.78158 6.73822,2.34388 1.32191,1.32279 1.98329,3.08484 1.98329,5.28616 v 0.0663 c 0,1.87145 -0.45749,3.39895 -1.37083,4.57669 -0.91498,1.17774 -2.10928,2.04219 -3.58542,2.59335 l 5.64999,8.25993 h -5.94669 l -4.95713,-7.40045 h -0.0647 -3.93184 v 7.40045 h -5.08725 z"
         style="fill:#231f20;fill-opacity:1;fill-rule:nonzero;stroke:none;stroke-width:0.82881" />
      <path
         id="path8"
         d="m 210.33832,184.29532 c 1.03349,0 1.98171,-0.16576 2.84113,-0.49645 0.8587,-0.32987 1.59051,-0.80229 2.19638,-1.41976 0.60582,-0.61497 1.07826,-1.34184 1.42058,-2.17977 0.34144,-0.83627 0.513,-1.772 0.513,-2.80718 v -0.0663 c 0,-1.01446 -0.17156,-1.95019 -0.513,-2.80967 -0.34232,-0.85699 -0.81476,-1.59629 -1.42058,-2.21375 -0.60587,-0.61498 -1.33768,-1.09403 -2.19638,-1.43633 -0.85942,-0.34147 -1.80764,-0.51303 -2.84113,-0.51303 h -3.93192 v 13.94225 z m -9.01996,-18.53221 h 9.01996 c 1.80597,0 3.46274,0.29174 4.97121,0.87274 1.50926,0.58431 2.80884,1.39489 3.89789,2.43007 1.09069,1.03518 1.93358,2.25188 2.5287,3.65008 0.59508,1.39904 0.89178,2.9141 0.89178,4.54355 v 0.0663 c 0,1.62944 -0.2967,3.14865 -0.89178,4.5593 -0.59512,1.40814 -1.43801,2.63147 -2.5287,3.66748 -1.08905,1.03519 -2.38863,1.84908 -3.89789,2.44333 -1.50847,0.59592 -3.16524,0.89263 -4.97121,0.89263 h -9.01996 z"
         style="fill:#231f20;fill-opacity:1;fill-rule:nonzero;stroke:none;stroke-width:0.82881" />
      <path
         id="path9"
         d="m -54.279209,164.8067 v 32.89829 L -73.69786,179.87842 V 197.167 H -90.7021 c -0.910167,-1.01776 -1.744134,-2.0962 -2.502253,-3.23533 h 16.270816 v -21.40655 l 19.417948,17.8181 V 164.8067 Z"
         style="fill:#231f20;fill-opacity:1;fill-rule:nonzero;stroke:none;stroke-width:0.352777" />
      <path
         id="path10"
         d="m -57.515521,164.8067 v 25.53652 l -19.417945,-17.8181 v 21.40655 h -16.270816 c 0.757767,1.13913 1.592086,2.21757 2.502253,3.23533 h 17.00424 v -17.28858 l 19.418652,17.82657 V 164.8067 Z"
         style="fill:#231f20;fill-opacity:1;fill-rule:nonzero;stroke:none;stroke-width:0.352777" />
      <path
         id="path11"
         d="m -36.349209,177.74923 c 0,11.35098 -5.84976,21.35858 -14.694955,27.17165 -0.03246,0.0215 -0.05997,0.0409 -0.09208,0.0607 -5.095875,3.3281 -11.178471,5.26062 -17.705917,5.26062 -9.11366,0 -17.365133,-3.77261 -23.271338,-9.83932 -0.994481,-1.01389 -1.916642,-2.09691 -2.766836,-3.23568 -0.773642,-1.03435 -1.482725,-2.11243 -2.132895,-3.23568 h 3.808942 c 0.757767,1.13947 1.592086,2.21756 2.502253,3.23568 1.033991,1.16346 2.161116,2.24578 3.367616,3.23568 5.043665,4.12608 11.482917,6.59976 18.492258,6.59976 5.577062,0 10.793236,-1.56774 15.231885,-4.28625 0.886177,-0.54186 1.744486,-1.13065 2.566107,-1.76777 6.960658,-5.34917 11.455045,-13.7608 11.455045,-23.19937 0,-4.64291 -1.086554,-9.04134 -3.023304,-12.94271 l 3.5687,-0.004 c 1.732137,3.96946 2.694514,8.34778 2.694514,12.94659"
         style="fill:#231f20;fill-opacity:1;fill-rule:nonzero;stroke:none;stroke-width:0.352777" />
      <path
         id="path12"
         d="M -40.671405,161.56693 H -60.75116 v 21.41466 l -19.417948,-17.82621 v 25.54041 h -3.235677 v -32.90182 l 19.417945,17.82621 v -17.28893 h 17.004242 c -1.033992,-1.16311 -2.160762,-2.24508 -3.367617,-3.23568 -5.044017,-4.12574 -11.482917,-6.59976 -18.491904,-6.59976 -5.577416,0 -10.793941,1.56809 -15.232239,4.28624 -0.886177,0.54152 -1.744133,1.13066 -2.566104,1.76813 -6.960659,5.34881 -11.455048,13.7608 -11.455048,23.19901 0,4.64715 1.086556,9.04135 3.023306,12.9466 h -3.5687 c -1.732136,-3.96911 -2.694516,-8.34743 -2.694516,-12.9466 0,-11.35097 5.84976,-21.35857 14.694958,-27.17235 0.0321,-0.0198 0.05997,-0.0402 0.09207,-0.06 5.095875,-3.32811 11.178114,-5.26062 17.706268,-5.26062 9.113309,0 17.364779,3.77296 23.270985,9.83932 0.994482,1.01424 1.916642,2.09726 2.766836,3.23568 0.773641,1.03434 1.482725,2.11278 2.132893,3.23568"
         style="fill:#231f20;fill-opacity:1;fill-rule:nonzero;stroke:none;stroke-width:0.352777" />
    </g>
  </g>
</svg>
